# Blender v2.83.5 OBJ File: ''
# www.blender.org
mtllib eyelid10x8.mtl
o Plane
v -0.600000 0.600000 -0.000000
v -0.800000 0.600000 -0.000000
v -0.800000 0.800000 -0.000000
v -0.400000 0.400000 -0.000000
v -0.600000 0.400000 -0.000000
v -0.200000 0.200000 -0.000000
v -0.400000 0.200000 -0.000000
v 0.000000 0.000000 0.000000
v -0.200000 0.000000 -0.000000
v 0.200000 -0.200000 0.000000
v -0.000000 -0.200000 0.000000
v 0.400000 -0.400000 0.000000
v 0.200000 -0.400000 0.000000
v 0.600000 -0.600000 0.000000
v 0.400000 -0.600000 0.000000
v 0.800000 -0.800000 0.000000
v 0.600000 -0.800000 0.000000
v -1.000000 0.800000 -0.000000
v -1.000000 0.600000 -0.000000
v -0.800000 0.400000 -0.000000
v -1.000000 0.400000 -0.000000
v -0.600000 0.200000 -0.000000
v -0.800000 0.200000 -0.000000
v -1.000000 0.200000 -0.000000
v -0.400000 0.000000 -0.000000
v -0.600000 0.000000 -0.000000
v -0.800000 0.000000 -0.000000
v -1.000000 0.000000 -0.000000
v -0.200000 -0.200000 -0.000000
v -0.400000 -0.200000 -0.000000
v -0.600000 -0.200000 -0.000000
v -0.800000 -0.200000 -0.000000
v -1.000000 -0.200000 -0.000000
v -0.000000 -0.400000 0.000000
v -0.200000 -0.400000 -0.000000
v -0.400000 -0.400000 -0.000000
v -0.600000 -0.400000 -0.000000
v -0.800000 -0.400000 -0.000000
v -1.000000 -0.400000 -0.000000
v 0.200000 -0.600000 0.000000
v -0.000000 -0.600000 0.000000
v -0.200000 -0.600000 -0.000000
v -0.400000 -0.600000 -0.000000
v -0.600000 -0.600000 -0.000000
v -0.800000 -0.600000 -0.000000
v -1.000000 -0.600000 -0.000000
v 0.400000 -0.800000 0.000000
v 0.200000 -0.800000 0.000000
v -0.000000 -0.800000 0.000000
v -0.200000 -0.800000 -0.000000
v -0.400000 -0.800000 -0.000000
v -0.600000 -0.800000 -0.000000
v -0.800000 -0.800000 -0.000000
v -1.000000 -0.800000 -0.000000
v 1.000000 0.600000 0.000000
v 0.800000 0.800000 0.000000
v 1.000000 0.800000 0.000000
v 1.000000 0.400000 0.000000
v 0.800000 0.600000 0.000000
v 1.000000 0.200000 0.000000
v 0.800000 0.400000 0.000000
v 1.000000 -0.000000 0.000000
v 0.800000 0.200000 0.000000
v 1.000000 -0.200000 0.000000
v 0.800000 -0.000000 0.000000
v 1.000000 -0.400000 0.000000
v 0.800000 -0.200000 0.000000
v 1.000000 -0.600000 0.000000
v 0.800000 -0.400000 0.000000
v 1.000000 -0.800000 0.000000
v 0.800000 -0.600000 0.000000
v 0.600000 0.800000 0.000000
v 0.600000 0.600000 0.000000
v 0.400000 0.800000 0.000000
v 0.600000 0.400000 0.000000
v 0.400000 0.600000 0.000000
v 0.200000 0.800000 0.000000
v 0.600000 0.200000 0.000000
v 0.400000 0.400000 0.000000
v 0.200000 0.600000 0.000000
v 0.000000 0.800000 0.000000
v 0.600000 -0.000000 0.000000
v 0.400000 0.200000 0.000000
v 0.200000 0.400000 0.000000
v 0.000000 0.600000 0.000000
v -0.200000 0.800000 -0.000000
v 0.600000 -0.200000 0.000000
v 0.400000 -0.000000 0.000000
v 0.200000 0.200000 0.000000
v 0.000000 0.400000 0.000000
v -0.200000 0.600000 -0.000000
v -0.400000 0.800000 -0.000000
v 0.600000 -0.400000 0.000000
v 0.400000 -0.200000 0.000000
v 0.200000 -0.000000 0.000000
v 0.000000 0.200000 0.000000
v -0.200000 0.400000 -0.000000
v -0.400000 0.600000 -0.000000
v -0.600000 0.800000 -0.000000
vt 0.200000 0.800000
vt 0.200000 0.900000
vt 0.100000 0.900000
vt 0.300000 0.700000
vt 0.300000 0.800000
vt 0.400000 0.600000
vt 0.400000 0.700000
vt 0.500000 0.500000
vt 0.500000 0.600000
vt 0.600000 0.400000
vt 0.600000 0.500000
vt 0.700000 0.300000
vt 0.700000 0.400000
vt 0.800000 0.200000
vt 0.800000 0.300000
vt 0.900000 0.100000
vt 0.900000 0.200000
vt 0.100000 1.000000
vt 0.200000 1.000000
vt 0.300000 0.900000
vt 0.300000 1.000000
vt 0.400000 0.800000
vt 0.400000 0.900000
vt 0.400000 1.000000
vt 0.500000 0.700000
vt 0.500000 0.800000
vt 0.500000 0.900000
vt 0.500000 1.000000
vt 0.600000 0.600000
vt 0.600000 0.700000
vt 0.600000 0.800000
vt 0.600000 0.900000
vt 0.600000 1.000000
vt 0.700000 0.500000
vt 0.700000 0.600000
vt 0.700000 0.700000
vt 0.700000 0.800000
vt 0.700000 0.900000
vt 0.700000 1.000000
vt 0.800000 0.400000
vt 0.800000 0.500000
vt 0.800000 0.600000
vt 0.800000 0.700000
vt 0.800000 0.800000
vt 0.800000 0.900000
vt 0.800000 1.000000
vt 0.900000 0.300000
vt 0.900000 0.400000
vt 0.900000 0.500000
vt 0.900000 0.600000
vt 0.900000 0.700000
vt 0.900000 0.800000
vt 0.900000 0.900000
vt 0.900000 1.000000
vt 0.200000 0.000000
vt 0.100000 0.100000
vt 0.100000 0.000000
vt 0.300000 0.000000
vt 0.200000 0.100000
vt 0.400000 0.000000
vt 0.300000 0.100000
vt 0.500000 0.000000
vt 0.400000 0.100000
vt 0.600000 0.000000
vt 0.500000 0.100000
vt 0.700000 0.000000
vt 0.600000 0.100000
vt 0.800000 0.000000
vt 0.700000 0.100000
vt 0.900000 0.000000
vt 0.800000 0.100000
vt 0.100000 0.200000
vt 0.200000 0.200000
vt 0.100000 0.300000
vt 0.300000 0.200000
vt 0.200000 0.300000
vt 0.100000 0.400000
vt 0.400000 0.200000
vt 0.300000 0.300000
vt 0.200000 0.400000
vt 0.100000 0.500000
vt 0.500000 0.200000
vt 0.400000 0.300000
vt 0.300000 0.400000
vt 0.200000 0.500000
vt 0.100000 0.600000
vt 0.600000 0.200000
vt 0.500000 0.300000
vt 0.400000 0.400000
vt 0.300000 0.500000
vt 0.200000 0.600000
vt 0.100000 0.700000
vt 0.700000 0.200000
vt 0.600000 0.300000
vt 0.500000 0.400000
vt 0.400000 0.500000
vt 0.300000 0.600000
vt 0.200000 0.700000
vt 0.100000 0.800000
vn 0.0000 -0.0000 -1.0000
usemtl None
s 1
f 1/1/1 2/2/1 3/3/1
f 4/4/1 5/5/1 1/1/1
f 6/6/1 7/7/1 4/4/1
f 8/8/1 9/9/1 6/6/1
f 10/10/1 11/11/1 8/8/1
f 12/12/1 13/13/1 10/10/1
f 14/14/1 15/15/1 12/12/1
f 16/16/1 17/17/1 14/14/1
f 3/3/1 2/2/1 18/18/1
f 2/2/1 19/19/1 18/18/1
f 1/1/1 5/5/1 2/2/1
f 5/5/1 20/20/1 2/2/1
f 2/2/1 20/20/1 19/19/1
f 20/20/1 21/21/1 19/19/1
f 4/4/1 7/7/1 5/5/1
f 7/7/1 22/22/1 5/5/1
f 5/5/1 22/22/1 20/20/1
f 22/22/1 23/23/1 20/20/1
f 20/20/1 23/23/1 21/21/1
f 23/23/1 24/24/1 21/21/1
f 6/6/1 9/9/1 7/7/1
f 9/9/1 25/25/1 7/7/1
f 7/7/1 25/25/1 22/22/1
f 25/25/1 26/26/1 22/22/1
f 22/22/1 26/26/1 23/23/1
f 26/26/1 27/27/1 23/23/1
f 23/23/1 27/27/1 24/24/1
f 27/27/1 28/28/1 24/24/1
f 8/8/1 11/11/1 9/9/1
f 11/11/1 29/29/1 9/9/1
f 9/9/1 29/29/1 25/25/1
f 29/29/1 30/30/1 25/25/1
f 25/25/1 30/30/1 26/26/1
f 30/30/1 31/31/1 26/26/1
f 26/26/1 31/31/1 27/27/1
f 31/31/1 32/32/1 27/27/1
f 27/27/1 32/32/1 28/28/1
f 32/32/1 33/33/1 28/28/1
f 10/10/1 13/13/1 11/11/1
f 13/13/1 34/34/1 11/11/1
f 11/11/1 34/34/1 29/29/1
f 34/34/1 35/35/1 29/29/1
f 29/29/1 35/35/1 30/30/1
f 35/35/1 36/36/1 30/30/1
f 30/30/1 36/36/1 31/31/1
f 36/36/1 37/37/1 31/31/1
f 31/31/1 37/37/1 32/32/1
f 37/37/1 38/38/1 32/32/1
f 32/32/1 38/38/1 33/33/1
f 38/38/1 39/39/1 33/33/1
f 12/12/1 15/15/1 13/13/1
f 15/15/1 40/40/1 13/13/1
f 13/13/1 40/40/1 34/34/1
f 40/40/1 41/41/1 34/34/1
f 34/34/1 41/41/1 35/35/1
f 41/41/1 42/42/1 35/35/1
f 35/35/1 42/42/1 36/36/1
f 42/42/1 43/43/1 36/36/1
f 36/36/1 43/43/1 37/37/1
f 43/43/1 44/44/1 37/37/1
f 37/37/1 44/44/1 38/38/1
f 44/44/1 45/45/1 38/38/1
f 38/38/1 45/45/1 39/39/1
f 45/45/1 46/46/1 39/39/1
f 14/14/1 17/17/1 15/15/1
f 17/17/1 47/47/1 15/15/1
f 15/15/1 47/47/1 40/40/1
f 47/47/1 48/48/1 40/40/1
f 40/40/1 48/48/1 41/41/1
f 48/48/1 49/49/1 41/41/1
f 41/41/1 49/49/1 42/42/1
f 49/49/1 50/50/1 42/42/1
f 42/42/1 50/50/1 43/43/1
f 50/50/1 51/51/1 43/43/1
f 43/43/1 51/51/1 44/44/1
f 51/51/1 52/52/1 44/44/1
f 44/44/1 52/52/1 45/45/1
f 52/52/1 53/53/1 45/45/1
f 45/45/1 53/53/1 46/46/1
f 53/53/1 54/54/1 46/46/1
f 55/55/1 56/56/1 57/57/1
f 58/58/1 59/59/1 55/55/1
f 60/60/1 61/61/1 58/58/1
f 62/62/1 63/63/1 60/60/1
f 64/64/1 65/65/1 62/62/1
f 66/66/1 67/67/1 64/64/1
f 68/68/1 69/69/1 66/66/1
f 70/70/1 71/71/1 68/68/1
f 55/55/1 59/59/1 56/56/1
f 59/59/1 72/72/1 56/56/1
f 58/58/1 61/61/1 59/59/1
f 61/61/1 73/73/1 59/59/1
f 59/59/1 73/73/1 72/72/1
f 73/73/1 74/74/1 72/72/1
f 60/60/1 63/63/1 61/61/1
f 63/63/1 75/75/1 61/61/1
f 61/61/1 75/75/1 73/73/1
f 75/75/1 76/76/1 73/73/1
f 73/73/1 76/76/1 74/74/1
f 76/76/1 77/77/1 74/74/1
f 62/62/1 65/65/1 63/63/1
f 65/65/1 78/78/1 63/63/1
f 63/63/1 78/78/1 75/75/1
f 78/78/1 79/79/1 75/75/1
f 75/75/1 79/79/1 76/76/1
f 79/79/1 80/80/1 76/76/1
f 76/76/1 80/80/1 77/77/1
f 80/80/1 81/81/1 77/77/1
f 64/64/1 67/67/1 65/65/1
f 67/67/1 82/82/1 65/65/1
f 65/65/1 82/82/1 78/78/1
f 82/82/1 83/83/1 78/78/1
f 78/78/1 83/83/1 79/79/1
f 83/83/1 84/84/1 79/79/1
f 79/79/1 84/84/1 80/80/1
f 84/84/1 85/85/1 80/80/1
f 80/80/1 85/85/1 81/81/1
f 85/85/1 86/86/1 81/81/1
f 66/66/1 69/69/1 67/67/1
f 69/69/1 87/87/1 67/67/1
f 67/67/1 87/87/1 82/82/1
f 87/87/1 88/88/1 82/82/1
f 82/82/1 88/88/1 83/83/1
f 88/88/1 89/89/1 83/83/1
f 83/83/1 89/89/1 84/84/1
f 89/89/1 90/90/1 84/84/1
f 84/84/1 90/90/1 85/85/1
f 90/90/1 91/91/1 85/85/1
f 85/85/1 91/91/1 86/86/1
f 91/91/1 92/92/1 86/86/1
f 68/68/1 71/71/1 69/69/1
f 71/71/1 93/93/1 69/69/1
f 69/69/1 93/93/1 87/87/1
f 93/93/1 94/94/1 87/87/1
f 87/87/1 94/94/1 88/88/1
f 94/94/1 95/95/1 88/88/1
f 88/88/1 95/95/1 89/89/1
f 95/95/1 96/96/1 89/89/1
f 89/89/1 96/96/1 90/90/1
f 96/96/1 97/97/1 90/90/1
f 90/90/1 97/97/1 91/91/1
f 97/97/1 98/98/1 91/91/1
f 91/91/1 98/98/1 92/92/1
f 98/98/1 99/99/1 92/92/1
f 70/70/1 16/16/1 71/71/1
f 16/16/1 14/14/1 71/71/1
f 71/71/1 14/14/1 93/93/1
f 14/14/1 12/12/1 93/93/1
f 93/93/1 12/12/1 94/94/1
f 12/12/1 10/10/1 94/94/1
f 94/94/1 10/10/1 95/95/1
f 10/10/1 8/8/1 95/95/1
f 95/95/1 8/8/1 96/96/1
f 8/8/1 6/6/1 96/96/1
f 96/96/1 6/6/1 97/97/1
f 6/6/1 4/4/1 97/97/1
f 97/97/1 4/4/1 98/98/1
f 4/4/1 1/1/1 98/98/1
f 98/98/1 1/1/1 99/99/1
f 1/1/1 3/3/1 99/99/1
