# Blender v2.83.5 OBJ File: ''
# www.blender.org
mtllib teeth8x4.mtl
o Plane
v -0.250000 0.250000 0.000000
v -0.500000 0.250000 0.000000
v -0.500000 0.500000 0.000000
v 0.000000 0.000000 0.000000
v -0.250000 0.000000 0.000000
v 0.250000 -0.250000 0.000000
v -0.000000 -0.250000 0.000000
v 0.500000 -0.500000 0.000000
v 0.250000 -0.500000 0.000000
v -0.750000 0.500000 0.000000
v -0.750000 0.250000 0.000000
v -1.000000 0.500000 0.000000
v -1.000000 0.250000 0.000000
v -0.500000 0.000000 0.000000
v -0.750000 0.000000 0.000000
v -1.000000 0.000000 0.000000
v -0.250000 -0.250000 0.000000
v -0.500000 -0.250000 0.000000
v -0.750000 -0.250000 0.000000
v -1.000000 -0.250000 0.000000
v -0.000000 -0.500000 0.000000
v -0.250000 -0.500000 0.000000
v -0.500000 -0.500000 0.000000
v -0.750000 -0.500000 0.000000
v -1.000000 -0.500000 0.000000
v 1.000000 0.250000 0.000000
v 0.750000 0.500000 0.000000
v 1.000000 0.500000 0.000000
v 1.000000 -0.000000 0.000000
v 0.750000 0.250000 0.000000
v 1.000000 -0.250000 0.000000
v 0.750000 -0.000000 0.000000
v 1.000000 -0.500000 0.000000
v 0.750000 -0.250000 0.000000
v 0.500000 0.500000 0.000000
v 0.500000 0.250000 0.000000
v 0.250000 0.500000 0.000000
v 0.500000 -0.000000 0.000000
v 0.250000 0.250000 0.000000
v 0.000000 0.500000 0.000000
v 0.750000 -0.500000 0.000000
v 0.500000 -0.250000 0.000000
v 0.250000 -0.000000 0.000000
v 0.000000 0.250000 0.000000
v -0.250000 0.500000 0.000000
vt 0.375000 0.625000
vt 0.375000 0.750000
vt 0.250000 0.750000
vt 0.500000 0.500000
vt 0.500000 0.625000
vt 0.625000 0.375000
vt 0.625000 0.500000
vt 0.750000 0.250000
vt 0.750000 0.375000
vt 0.250000 0.875000
vt 0.375000 0.875000
vt 0.250000 1.000000
vt 0.375000 1.000000
vt 0.500000 0.750000
vt 0.500000 0.875000
vt 0.500000 1.000000
vt 0.625000 0.625000
vt 0.625000 0.750000
vt 0.625000 0.875000
vt 0.625000 1.000000
vt 0.750000 0.500000
vt 0.750000 0.625000
vt 0.750000 0.750000
vt 0.750000 0.875000
vt 0.750000 1.000000
vt 0.375000 0.000000
vt 0.250000 0.125000
vt 0.250000 0.000000
vt 0.500000 0.000000
vt 0.375000 0.125000
vt 0.625000 0.000000
vt 0.500000 0.125000
vt 0.750000 0.000000
vt 0.625000 0.125000
vt 0.250000 0.250000
vt 0.375000 0.250000
vt 0.250000 0.375000
vt 0.500000 0.250000
vt 0.375000 0.375000
vt 0.250000 0.500000
vt 0.750000 0.125000
vt 0.625000 0.250000
vt 0.500000 0.375000
vt 0.375000 0.500000
vt 0.250000 0.625000
vn 0.0000 0.0000 -1.0000
usemtl None
s 1
f 1/1/1 2/2/1 3/3/1
f 4/4/1 5/5/1 1/1/1
f 6/6/1 7/7/1 4/4/1
f 8/8/1 9/9/1 6/6/1
f 3/3/1 2/2/1 10/10/1
f 2/2/1 11/11/1 10/10/1
f 10/10/1 11/11/1 12/12/1
f 11/11/1 13/13/1 12/12/1
f 1/1/1 5/5/1 2/2/1
f 5/5/1 14/14/1 2/2/1
f 2/2/1 14/14/1 11/11/1
f 14/14/1 15/15/1 11/11/1
f 11/11/1 15/15/1 13/13/1
f 15/15/1 16/16/1 13/13/1
f 4/4/1 7/7/1 5/5/1
f 7/7/1 17/17/1 5/5/1
f 5/5/1 17/17/1 14/14/1
f 17/17/1 18/18/1 14/14/1
f 14/14/1 18/18/1 15/15/1
f 18/18/1 19/19/1 15/15/1
f 15/15/1 19/19/1 16/16/1
f 19/19/1 20/20/1 16/16/1
f 6/6/1 9/9/1 7/7/1
f 9/9/1 21/21/1 7/7/1
f 7/7/1 21/21/1 17/17/1
f 21/21/1 22/22/1 17/17/1
f 17/17/1 22/22/1 18/18/1
f 22/22/1 23/23/1 18/18/1
f 18/18/1 23/23/1 19/19/1
f 23/23/1 24/24/1 19/19/1
f 19/19/1 24/24/1 20/20/1
f 24/24/1 25/25/1 20/20/1
f 26/26/1 27/27/1 28/28/1
f 29/29/1 30/30/1 26/26/1
f 31/31/1 32/32/1 29/29/1
f 33/33/1 34/34/1 31/31/1
f 26/26/1 30/30/1 27/27/1
f 30/30/1 35/35/1 27/27/1
f 29/29/1 32/32/1 30/30/1
f 32/32/1 36/36/1 30/30/1
f 30/30/1 36/36/1 35/35/1
f 36/36/1 37/37/1 35/35/1
f 31/31/1 34/34/1 32/32/1
f 34/34/1 38/38/1 32/32/1
f 32/32/1 38/38/1 36/36/1
f 38/38/1 39/39/1 36/36/1
f 36/36/1 39/39/1 37/37/1
f 39/39/1 40/40/1 37/37/1
f 33/33/1 41/41/1 34/34/1
f 41/41/1 42/42/1 34/34/1
f 34/34/1 42/42/1 38/38/1
f 42/42/1 43/43/1 38/38/1
f 38/38/1 43/43/1 39/39/1
f 43/43/1 44/44/1 39/39/1
f 39/39/1 44/44/1 40/40/1
f 44/44/1 45/45/1 40/40/1
f 41/41/1 8/8/1 42/42/1
f 8/8/1 6/6/1 42/42/1
f 42/42/1 6/6/1 43/43/1
f 6/6/1 4/4/1 43/43/1
f 43/43/1 4/4/1 44/44/1
f 4/4/1 1/1/1 44/44/1
f 44/44/1 1/1/1 45/45/1
f 1/1/1 3/3/1 45/45/1
